<svg viewBox="0 0 24 24" xmlns="http://www.w3.org/2000/svg"><path d="m12.012 2.598c-5.22 0-9.452 3.9-9.452 8.709 0 3.016 1.219 5.301 3.155 6.774h-.005l.234 3.042v.004c0 .017 0 .031.004.046v.006c.024.144.15.255.301.255.053 0 .1-.015.144-.035l.011-.008 2.896-1.674c.854.196 1.767.299 2.71.299 5.22 0 9.452-3.899 9.452-8.71 0-4.81-4.233-8.709-9.454-8.709l.004.001zm-1.622-1.878c.525-.065 1.061-.104 1.605-.104.38 0 .75.02 1.119.052l.057-.614c-.39-.035-.779-.054-1.174-.054-.57 0-1.135.036-1.691.109l.083.612zm3.797.094c.915.165 1.785.436 2.61.795l.252-.567c-.132-.056-.263-.112-.397-.165-.762-.3-1.551-.524-2.355-.671zm9.169 10.556c-.015.915-.155 1.806-.405 2.655l.59.175c.267-.903.416-1.854.431-2.831zm-16.611-9.556c.811-.389 1.678-.698 2.586-.902l-.135-.604c-.631.141-1.251.329-1.853.569-.297.117-.586.245-.867.381zm13.65 1.399c-.706-.649-1.485-1.207-2.329-1.673l-.311.541c.811.445 1.561.981 2.224 1.596l.416-.462zm-5.244 18.838c.945-.24 1.845-.591 2.686-1.03l-.315-.533c-.786.413-1.631.738-2.521.967zm-11.474-18.046c.63-.638 1.347-1.2 2.13-1.675l-.327-.529c-.698.422-1.35.914-1.945 1.473-.102.094-.2.191-.3.289l.439.441zm19.48 11.28-.568-.236c-.349.833-.803 1.614-1.354 2.332l.495.369c.577-.758 1.061-1.586 1.424-2.465zm-2.431-10.852c.606.675 1.122 1.425 1.534 2.228l.555-.275c-.435-.852-.979-1.645-1.627-2.366l-.465.413zm2.554 3.003-.568.244c.313.828.521 1.703.604 2.61l.615-.061c-.088-.956-.305-1.892-.651-2.793zm-16.894 15.413-.969.425-.332-1.025-.585.19.438 1.347c.029.083.09.151.167.188.041.017.083.026.126.026s.084-.009.123-.026l1.283-.563zm3.823-1.193c-.078-.016-.157-.027-.237-.041l-.465-.079c-.061-.009-.12 0-.172.023l-1.951.853.271.554 1.845-.803c.125.021.25.041.371.059.068.017.139.026.209.038zm3.728.02c-.633.104-1.281.156-1.942.156-.273 0-.525-.015-.772-.038l-.019.615c.251.024.511.04.791.04.698 0 1.383-.058 2.048-.166l-.104-.606zm-12.42-14.56c.37-.825.852-1.598 1.425-2.302l-.47-.407c-.61.745-1.116 1.557-1.508 2.427l-.01.021zm19.015 11.094c-.612.651-1.31 1.229-2.07 1.728l.339.515c.806-.524 1.541-1.14 2.19-1.829zm-19.562-3.659c-.188-.796-.293-1.676-.323-2.671h-.616c.03 1.071.145 2.005.345 2.843zm-.432-6.626c-.297.91-.468 1.853-.51 2.813l.615.03c.042-.923.209-1.816.487-2.662zm4.199 13.26-.59-1.815c-.02-.06-.056-.109-.105-.147-.232-.182-.449-.366-.66-.558l-.422.446c.194.184.408.362.629.541l.561 1.717zm-2.105-3.292c-.591-.691-1.037-1.449-1.355-2.315l-.573.229c.041.107.083.216.126.322.33.796.771 1.509 1.342 2.175z"/></svg>